# xmcd CD database file
#
# Track frame offsets:
#	150
#	4158
#	7733
#	15945
#	22509
#	25947
#	28589
#	32907
#	44544
#	47404
#	51425
#	57407
#	60083
#	64045
#	66823
#	69626
#	74432
#	77812
#	90679
#	96700
#	100035
#	106031
#	109027
#
# Disc length: 1473 seconds
#
# Revision: 0
# Processed by: cddbd v1.5.2PL0 Copyright (c) Steve Scherf et al.
# Submitted via: CDex 1.70beta2
#
DISCID=1d05bf17
DTITLE=Wolf Marshall - The Best Of Charlie Christian
DYEAR=2002
DGENRE=Jazz
TTITLE0=Introduction
TTITLE1=Tuning Notes
TTITLE2=Stardust
TTITLE3=Seven Come Eleven
TTITLE4=Honeysuckle Rose
TTITLE5=Shivers 1
TTITLE6=Shivers 2
TTITLE7=Till Tom Special
TTITLE8=Gone With "What" Wind 1
TTITLE9=Gone With "What" Wind 2
TTITLE10=Grand Slam
TTITLE11=Six Appeal
TTITLE12=Good Enough To Keep (Air Mail Special)
TTITLE13=Wholly Cats 1
TTITLE14=Wholly Cats 2
TTITLE15=Benny's Bugle
TTITLE16=I've Found A New Baby (I Found A New Baby)
TTITLE17=Solo Flight
TTITLE18=A Smooth One 1
TTITLE19=A Smooth One 2
TTITLE20=Air Mail Special 1
TTITLE21=Air Mail Special 2
TTITLE22=Afterword
EXTD=YEAR: 2002
EXTT0=
EXTT1=
EXTT2=
EXTT3=
EXTT4=
EXTT5=
EXTT6=
EXTT7=
EXTT8=
EXTT9=
EXTT10=
EXTT11=
EXTT12=
EXTT13=
EXTT14=
EXTT15=
EXTT16=
EXTT17=
EXTT18=
EXTT19=
EXTT20=
EXTT21=
EXTT22=
PLAYORDER=
